# xmcd
#
# Track frame offsets:
#	150
#	14172
#	32822
#	48635
#	62502
#	77542
#	95069
#	113095
#	130409
#	147204
#	161472
#	178510
#
# Disc length: 2581
#
# Revision: 1
# Processed by: cddbd v1.5.1PL0 Copyright (c) Steve Scherf et al.
# Submitted via: CDex 1.50beta9
# Normalized: r0:TDELIM( - )
#
DISCID=a10a130c
DTITLE=Various Artist - Today' Country Hits - Vol 2
DYEAR=2001
DGENRE=Country
TTITLE0=Dixie Chicks - If I Fall You're Going Down With Me
TTITLE1=George Strait - If You Can Do Anything Else
TTITLE2=Alan Jackson - When Somebody Loves You
TTITLE3=Jamie O'Neal - When I Think About Angels
TTITLE4=Kenny Chesney - Don't Happen Twice
TTITLE5=Phil Vassar - Rose Bouquet
TTITLE6=Sara Evans - I Could Not Ask For More
TTITLE7=Chris Cagle - Laredo
TTITLE8=Montgomery Gentry - She Couldn't Change Me
TTITLE9=Lorrie Morgan and Sammy Kershaw - He Drinks Tequila
TTITLE10=Trisha Yearwood - I Would've Loved You Anyway
TTITLE11=Brooks and Dunn - Ain't Nothing 'Bout You
EXTD=YEAR: 2001
EXTT0=
EXTT1=
EXTT2=
EXTT3=
EXTT4=
EXTT5=
EXTT6=
EXTT7=
EXTT8=
EXTT9=
EXTT10=
EXTT11=
PLAYORDER=
